<svg width="26" height="26" viewBox="0 0 26 26" fill="none" xmlns="http://www.w3.org/2000/svg">
<path d="M13.0216 3.1525C9.43581 3.1525 6.52164 6.06667 6.52164 9.6525V12.7833C6.52164 13.4442 6.23997 14.4517 5.90414 15.015L4.65831 17.0842C3.88914 18.3625 4.41997 19.7817 5.82831 20.2583C10.4975 21.8183 15.535 21.8183 20.2041 20.2583C21.515 19.825 22.0891 18.2758 21.3741 17.0842L20.1283 15.015C19.8033 14.4517 19.5216 13.4442 19.5216 12.7833V9.6525C19.5216 6.0775 16.5966 3.1525 13.0216 3.1525Z" stroke="#FCFFE7" stroke-width="1.5" stroke-miterlimit="10" stroke-linecap="round"/>
<path d="M15.0259 3.46667C13.7158 3.09356 12.3276 3.09356 11.0175 3.46667C11.3317 2.665 12.1117 2.10167 13.0217 2.10167C13.9317 2.10167 14.7117 2.665 15.0259 3.46667Z" stroke="#FCFFE7" stroke-width="1.5" stroke-miterlimit="10" stroke-linecap="round" stroke-linejoin="round"/>
<path d="M16.2717 20.6483C16.2717 22.4358 14.8092 23.8983 13.0217 23.8983C12.1333 23.8983 11.31 23.53 10.725 22.945C10.1163 22.3354 9.77361 21.5098 9.77167 20.6483" stroke="#FCFFE7" stroke-width="1.5" stroke-miterlimit="10"/>
</svg>
