<svg width="16" height="16" viewBox="0 0 16 16" fill="none" xmlns="http://www.w3.org/2000/svg">
<path d="M5.87329 1.33331L3.45996 3.75331M10.1266 1.33331L12.54 3.75331" stroke="#FCFFE7" stroke-miterlimit="10" stroke-linecap="round" stroke-linejoin="round"/>
<path d="M1.33337 5.23336C1.33337 4.00002 1.99337 3.90002 2.81337 3.90002H13.1867C14.0067 3.90002 14.6667 4.00002 14.6667 5.23336C14.6667 6.66669 14.0067 6.56669 13.1867 6.56669H2.81337C1.99337 6.56669 1.33337 6.66669 1.33337 5.23336Z" stroke="#FCFFE7"/>
<path d="M6.50671 9.33335V11.7M9.57337 9.33335V11.7M2.33337 6.66669L3.27337 12.4267C3.48671 13.72 4.00004 14.6667 5.90671 14.6667H9.92671C12 14.6667 12.3067 13.76 12.5467 12.5067L13.6667 6.66669" stroke="#FCFFE7" stroke-linecap="round"/>
</svg>
