<svg width="24" height="24" viewBox="0 0 24 24" fill="none" xmlns="http://www.w3.org/2000/svg">
<path opacity="0.4" d="M12 22C17.523 22 22 17.523 22 12C22 6.477 17.523 2 12 2C6.477 2 2 6.477 2 12C2 17.523 6.477 22 12 22Z" fill="#FCFFE7"/>
<path d="M12 15.01C11.81 15.01 11.62 14.94 11.47 14.79L7.93999 11.26C7.80051 11.1189 7.72229 10.9284 7.72229 10.73C7.72229 10.5316 7.80051 10.3412 7.93999 10.2C8.22999 9.91001 8.70999 9.91001 8.99999 10.2L12 13.2L15 10.2C15.29 9.91001 15.77 9.91001 16.06 10.2C16.35 10.49 16.35 10.97 16.06 11.26L12.53 14.79C12.38 14.94 12.19 15.01 12 15.01Z" fill="#FCFFE7"/>
</svg>
