<svg width="20" height="20" viewBox="0 0 20 20" fill="none" xmlns="http://www.w3.org/2000/svg">
<path opacity="0.4" d="M5.81 0H14.18C17.83 0 20 2.17 20 5.81V14.18C20 17.82 17.83 19.99 14.19 19.99H5.81C2.17 20 0 17.83 0 14.19V5.81C0 2.17 2.17 0 5.81 0Z" fill="#FCFFE7"/>
<path d="M10 16.58C6.83 16.58 4.25 14 4.25 10.83C4.25 9.69002 4.58 8.58002 5.22 7.64002C5.45 7.30002 5.92 7.20002 6.26 7.43002C6.6 7.66002 6.7 8.13002 6.47 8.47002C6.04599 9.1111 5.80333 9.85496 5.76774 10.6228C5.73214 11.3905 5.90494 12.1537 6.26781 12.8312C6.63068 13.5088 7.17011 14.0756 7.82892 14.4715C8.48774 14.8674 9.24139 15.0776 10.01 15.08C11.1364 15.0774 12.2158 14.6288 13.0123 13.8323C13.8087 13.0358 14.2574 11.9564 14.26 10.83C14.26 8.59002 12.52 6.75002 10.32 6.59002L10.73 6.89002C11.06 7.13002 11.14 7.60002 10.89 7.94002C10.8316 8.01958 10.7582 8.08684 10.6738 8.13796C10.5894 8.18908 10.4957 8.22304 10.3982 8.2379C10.3007 8.25277 10.2011 8.24824 10.1054 8.22458C10.0096 8.20092 9.9194 8.15859 9.84 8.10002L7.9 6.69002C7.83042 6.64043 7.76958 6.5796 7.72 6.51002C7.71 6.50002 7.7 6.49002 7.69 6.47002C7.64977 6.39776 7.61949 6.32039 7.6 6.24002C7.58171 6.14445 7.57834 6.04662 7.59 5.95002L7.62 5.83002C7.64 5.76002 7.68 5.70002 7.72 5.63002C7.74 5.62002 7.76 5.60002 7.78 5.58002L9.44 3.68002C9.71 3.37002 10.19 3.34002 10.5 3.61002C10.81 3.88002 10.84 4.36002 10.57 4.67002L10.2 5.10002C11.691 5.15182 13.1037 5.7801 14.1408 6.8526C15.1778 7.92509 15.7583 9.35813 15.76 10.85C15.75 14 13.17 16.58 10 16.58Z" fill="#FCFFE7"/>
</svg>
