<svg width="181" height="42" viewBox="0 0 181 42" fill="none" xmlns="http://www.w3.org/2000/svg">
<path d="M6.65143 6.49455L43.4092 6.0186C43.6681 6.01525 43.8521 5.7643 43.7787 5.51481L43.0636 3.08506C42.6181 1.57142 41.1237 0.625394 39.5728 0.875217L6.62469 6.18254C6.43351 6.21334 6.45782 6.49706 6.65143 6.49455Z" fill="#FCFFE7"/>
<path fill-rule="evenodd" clip-rule="evenodd" d="M3.5787 9.7645H42.5971C44.3227 9.7645 45.7217 11.1703 45.7217 12.9045V20.0468C43.5917 20.4733 41.9721 22.6137 41.9721 25.1898C41.9721 27.766 43.5917 29.9063 45.7217 30.3328V38.0246C45.7217 39.7588 44.3227 41.1646 42.5971 41.1646H3.5787C1.85303 41.1646 0.454102 39.7588 0.454102 38.0246V30.6132C2.71732 30.3224 4.47702 28.1106 4.47702 25.4253C4.47702 22.74 2.71732 20.5283 0.454102 20.2375V12.9045C0.454102 11.1703 1.85303 9.7645 3.5787 9.7645ZM20.3824 14.5678C20.0245 14.5598 19.6748 14.6756 19.3917 14.8958L12.1953 20.4931C11.6343 20.9294 11.8959 21.8307 12.6024 21.8956L22.0007 22.7587C22.444 22.7994 22.8836 22.6481 23.209 22.3428L29.8366 16.1249C30.3487 15.6445 30.0212 14.7818 29.3208 14.7663L20.3824 14.5678ZM32.0592 17.3591C31.9014 16.7903 31.1988 16.5936 30.7711 16.9985L24.267 23.1561C23.8282 23.5716 23.6664 24.2037 23.8513 24.7804L27.1148 34.9574C27.297 35.5258 28.0189 35.6897 28.4265 35.2553L34.4563 28.8302C34.8319 28.43 34.9716 27.8614 34.8247 27.3315L32.0592 17.3591ZM22.3811 25.0898C22.1901 24.5007 21.6723 24.0796 21.0591 24.0148L12.1757 23.0758C11.6133 23.0164 11.1763 23.5586 11.3511 24.0991L14.5833 34.0977C14.7656 34.6617 15.2487 35.0744 15.8319 35.1644L24.9101 36.566C25.4854 36.6548 25.9518 36.103 25.7715 35.5469L22.3811 25.0898Z" fill="#FCFFE7"/>
<path d="M22.8005 15.765C23.0782 16.0916 21.1678 17.7186 21.1678 17.7186L20.1162 18.0579C20.1162 18.0579 17.74 17.7781 18.5599 16.9911C18.9386 16.6274 19.2338 16.4532 19.8499 16.3017C20.1893 16.2183 20.627 16.3119 20.627 16.3119C20.627 16.3119 21.0402 15.9275 21.5717 15.7489C22.2506 15.5207 22.6993 15.646 22.8005 15.765Z" fill="#FCFFE7"/>
<path d="M16.7997 18.6121C17.6017 18.1395 20.1162 18.0579 20.1162 18.0579L20.0652 18.6039C20.0652 18.6039 18.4583 20.3922 17.2477 20.4993C16.6884 20.5488 16.4757 20.4937 16.4649 20.1967C16.459 20.0331 16.8628 19.6493 16.8628 19.6493C16.8628 19.6493 16.2778 19.6928 16.1705 19.4777C16.0336 19.203 16.5073 18.7845 16.7997 18.6121Z" fill="#FCFFE7"/>
<path d="M23.5933 18.4606C22.6903 18.8197 21.125 18.2887 21.125 18.2887L21.1678 17.7186C21.1678 17.7186 23.7163 15.9629 24.6417 16.1334C25.0693 16.2121 25.1785 16.329 24.9716 16.6806C24.8577 16.8743 24.2978 17.2264 24.2978 17.2264C24.2978 17.2264 24.7391 17.3186 24.6589 17.5976C24.5565 17.9539 23.9225 18.3297 23.5933 18.4606Z" fill="#FCFFE7"/>
<path d="M20.1162 18.0579C19.9629 19.1453 20.1158 19.8108 20.9067 20.6193C20.9554 20.6691 21.0692 20.6861 21.2144 20.6377C21.3134 20.6047 21.4075 20.5638 21.4994 20.5141C21.6638 20.4252 21.7112 20.3134 21.657 20.2488C21.0144 19.4831 21.0807 18.7746 21.1678 17.7186L20.1162 18.0579Z" fill="#FCFFE7"/>
<path d="M20.1162 18.0579L21.1678 17.7186L21.125 18.2887L20.0652 18.6039L20.1162 18.0579Z" fill="#FCFFE7"/>
<path d="M27.353 30.3912L27.1433 29.7043L27.6029 29.2425L26.996 27.2539L26.5718 27.6802L26.3622 26.9934L27.3662 25.9845L28.1826 28.6599L28.5963 28.2442L28.8059 28.9311L27.353 30.3912Z" fill="#FCFFE7"/>
<path d="M28.9874 28.7486L29.2105 27.1185C29.0934 27.1484 28.9876 27.15 28.8933 27.1235C28.8004 27.0914 28.7176 27.0322 28.6452 26.9461C28.575 26.8576 28.519 26.7445 28.4769 26.6068L28.345 26.1745L28.8929 25.6238L29.0131 26.0177C29.0366 26.0945 29.0692 26.1559 29.1109 26.2019C29.154 26.2422 29.2013 26.2659 29.2527 26.2728C29.3054 26.2742 29.3583 26.2608 29.4113 26.2326L29.5646 24.9489L30.1832 24.3272L29.9752 25.8856C30.0989 25.8367 30.2128 25.8267 30.3172 25.8558C30.4229 25.8793 30.5141 25.9361 30.5909 26.0263C30.6701 26.1141 30.7321 26.2317 30.7771 26.379L30.9105 26.8161L30.359 27.3703L30.2329 26.9572C30.2066 26.8707 30.1673 26.8077 30.1152 26.768C30.0654 26.726 30.0089 26.7074 29.9457 26.7123C29.8849 26.7149 29.8241 26.7425 29.7632 26.7953L29.6025 28.1305L28.9874 28.7486Z" fill="#FCFFE7"/>
<path d="M31.7005 26.0222C31.5991 26.124 31.5008 26.1852 31.4054 26.2057C31.3091 26.223 31.2245 26.2034 31.1518 26.1468C31.0781 26.0869 31.0227 25.9962 30.9856 25.8745C30.9524 25.7656 30.9401 25.6398 30.9489 25.4971C30.9601 25.352 30.9896 25.2115 31.0374 25.0755L31.5599 23.609C31.5933 23.5168 31.6126 23.4285 31.6176 23.3439C31.6239 23.2538 31.6169 23.1752 31.5964 23.1079C31.5729 23.0311 31.5404 22.9801 31.4988 22.9549C31.4587 22.9241 31.4118 22.9168 31.3582 22.933C31.306 22.9436 31.2493 22.9797 31.188 23.0413L30.4916 23.7411L30.282 23.0543L31.0349 22.2976C31.1976 22.1342 31.3536 22.0401 31.5031 22.0154C31.654 21.9851 31.7869 22.0169 31.9017 22.1106C32.018 22.1989 32.1059 22.3406 32.1655 22.536C32.2241 22.7281 32.247 22.929 32.234 23.1387C32.2224 23.3429 32.1693 23.5677 32.0749 23.8132L31.595 25.0863C31.5913 25.0943 31.5878 25.1082 31.5847 25.1281C31.5829 25.1424 31.5839 25.156 31.5878 25.1688C31.5937 25.188 31.6016 25.1989 31.6116 25.2014C31.623 25.1983 31.637 25.1885 31.6535 25.1719L32.721 24.0991L32.9307 24.7859L31.7005 26.0222Z" fill="#FCFFE7"/>
<path fill-rule="evenodd" clip-rule="evenodd" d="M19.461 33.617C21.5997 33.8999 22.8482 32.441 22.2496 30.3584C21.651 28.2758 19.4321 26.3582 17.2935 26.0752C15.1549 25.7923 13.9064 27.2512 14.5049 29.3338C15.1035 31.4164 17.3224 33.3341 19.461 33.617ZM16.3492 30.7487L16.5648 31.499L18.7791 31.7919L18.5634 31.0417L17.9331 30.9583L17.0932 28.036L15.5631 27.8336L15.7788 28.5838L16.4253 28.6693L17.0495 30.8414L16.3492 30.7487ZM19.9713 29.2798L19.2335 31.852L20.2195 31.9825L20.8704 29.6309C20.8856 29.5757 20.8922 29.5144 20.89 29.4468C20.8869 29.3757 20.8747 29.3034 20.8536 29.23C20.8154 29.0971 20.7448 28.9717 20.6418 28.8537C20.5388 28.7358 20.4185 28.6358 20.2809 28.5536C20.1433 28.4715 20.0008 28.4207 19.8536 28.4012L18.0272 28.1596L18.2428 28.9098L19.8752 29.1258C19.9004 29.1291 19.9221 29.1387 19.9405 29.1546C19.9589 29.1705 19.9706 29.1872 19.9756 29.2047C19.9817 29.2257 19.9802 29.2507 19.9713 29.2798Z" fill="#FCFFE7"/>
<path d="M52.2467 35.288V31.6008H60.1216C60.4728 31.6008 60.7888 31.513 61.0698 31.3374C61.3507 31.1618 61.5702 30.9335 61.7282 30.6526C61.9038 30.3717 61.9916 30.0644 61.9916 29.7308C61.9916 29.3796 61.9038 29.0636 61.7282 28.7827C61.5702 28.5017 61.3507 28.2735 61.0698 28.0979C60.7888 27.9223 60.4728 27.8345 60.1216 27.8345H57.2772C56.2061 27.8345 55.2316 27.6238 54.3537 27.2024C53.4758 26.781 52.7734 26.1665 52.2467 25.3588C51.7375 24.5335 51.4829 23.5503 51.4829 22.409C51.4829 21.2852 51.7287 20.3108 52.2204 19.4855C52.712 18.6603 53.3792 18.0194 54.222 17.5629C55.0648 17.0888 55.9954 16.8518 57.0138 16.8518H65.1521V20.539H57.5142C57.1981 20.539 56.9084 20.618 56.6451 20.7761C56.3817 20.9341 56.1798 21.1448 56.0393 21.4082C55.8988 21.6715 55.8286 21.9612 55.8286 22.2773C55.8286 22.5933 55.8988 22.8831 56.0393 23.1464C56.1798 23.3922 56.3817 23.5942 56.6451 23.7522C56.9084 23.9102 57.1981 23.9892 57.5142 23.9892H60.4903C61.6667 23.9892 62.6851 24.2175 63.5455 24.674C64.4234 25.113 65.0994 25.7363 65.5735 26.544C66.0651 27.3341 66.3109 28.2647 66.3109 29.3357C66.3109 30.5999 66.0563 31.6798 65.5471 32.5753C65.0555 33.4532 64.3883 34.1292 63.5455 34.6032C62.7027 35.0598 61.7721 35.288 60.7537 35.288H52.2467Z" fill="#FCFFE7"/>
<path d="M68.6776 35.288V27.5185C68.6776 26.3947 68.9497 25.3763 69.494 24.4633C70.0384 23.5503 70.8109 22.8216 71.8117 22.2773C72.8301 21.733 74.0329 21.4608 75.42 21.4608C76.8246 21.4608 78.0186 21.733 79.0019 22.2773C80.0027 22.8216 80.7665 23.5503 81.2932 24.4633C81.82 25.3763 82.0834 26.3947 82.0834 27.5185V35.288H78.0011V27.6238C78.0011 27.1497 77.8869 26.7195 77.6587 26.3333C77.4304 25.9294 77.1144 25.6134 76.7105 25.3851C76.3242 25.1393 75.8853 25.0164 75.3936 25.0164C74.8845 25.0164 74.4279 25.1393 74.0241 25.3851C73.6378 25.6134 73.3305 25.9294 73.1023 26.3333C72.874 26.7195 72.7599 27.1497 72.7599 27.6238V35.288H68.6776Z" fill="#FCFFE7"/>
<path d="M90.564 35.6041C89.3701 35.6041 88.3166 35.2968 87.4035 34.6823C86.4905 34.0677 85.7794 33.2425 85.2702 32.2065C84.761 31.153 84.5064 29.9678 84.5064 28.651C84.5064 27.2814 84.8049 26.0611 85.4019 24.9901C85.9989 23.9014 86.8417 23.0411 87.9303 22.409C89.0365 21.7769 90.3358 21.4608 91.8282 21.4608C93.3383 21.4608 94.62 21.7769 95.6735 22.409C96.7446 23.0235 97.561 23.8751 98.1229 24.9637C98.7023 26.0348 98.992 27.2375 98.992 28.572V35.288H94.9887V33.1283H94.8834C94.6376 33.6024 94.3215 34.0326 93.9352 34.4189C93.549 34.7876 93.0749 35.0773 92.513 35.288C91.9687 35.4987 91.319 35.6041 90.564 35.6041ZM91.7756 32.0748C92.3901 32.0748 92.9256 31.9256 93.3822 31.6271C93.8562 31.3111 94.2162 30.8809 94.462 30.3366C94.7078 29.7923 94.8307 29.1865 94.8307 28.5193C94.8307 27.8696 94.7078 27.2814 94.462 26.7547C94.2162 26.2279 93.8562 25.8153 93.3822 25.5168C92.9256 25.2008 92.3901 25.0427 91.7756 25.0427C91.1435 25.0427 90.5904 25.2008 90.1163 25.5168C89.6422 25.8153 89.2823 26.2279 89.0365 26.7547C88.7906 27.2814 88.6677 27.8696 88.6677 28.5193C88.6677 29.1865 88.7906 29.7923 89.0365 30.3366C89.2823 30.8809 89.6422 31.3111 90.1163 31.6271C90.5904 31.9256 91.1435 32.0748 91.7756 32.0748Z" fill="#FCFFE7"/>
<path d="M109.148 21.4608C110.29 21.4608 111.299 21.6452 112.177 22.0139C113.073 22.3651 113.828 22.8743 114.442 23.5415C115.074 24.1912 115.557 24.9637 115.891 25.8592C116.224 26.7371 116.391 27.7116 116.391 28.7827C116.391 30.1171 116.11 31.3023 115.548 32.3382C115.004 33.3566 114.249 34.1555 113.283 34.7349C112.318 35.3143 111.194 35.6041 109.912 35.6041C109.368 35.6041 108.85 35.5338 108.358 35.3934C107.884 35.2529 107.445 35.051 107.041 34.7876C106.655 34.5242 106.33 34.1994 106.067 33.8131H105.988V41.0032H101.906V28.7827C101.906 27.2902 102.204 25.9997 102.801 24.911C103.398 23.8224 104.241 22.9796 105.329 22.3826C106.418 21.7681 107.691 21.4608 109.148 21.4608ZM109.148 24.9901C108.516 24.9901 107.963 25.1481 107.489 25.4641C107.033 25.7626 106.681 26.184 106.436 26.7283C106.19 27.2551 106.067 27.8521 106.067 28.5193C106.067 29.1865 106.19 29.7835 106.436 30.3102C106.681 30.837 107.033 31.2584 107.489 31.5744C107.963 31.8729 108.516 32.0222 109.148 32.0222C109.781 32.0222 110.325 31.8729 110.781 31.5744C111.238 31.2584 111.589 30.837 111.835 30.3102C112.098 29.7835 112.23 29.1865 112.23 28.5193C112.23 27.8521 112.098 27.2551 111.835 26.7283C111.589 26.184 111.238 25.7626 110.781 25.4641C110.325 25.1481 109.781 24.9901 109.148 24.9901Z" fill="#FCFFE7"/>
<path d="M125.944 35.6041C124.486 35.6041 123.213 35.3056 122.125 34.7086C121.036 34.1116 120.193 33.26 119.596 32.1539C118.999 31.0477 118.701 29.7571 118.701 28.2822V16.0616H122.783V23.2518H122.862C123.126 22.8831 123.45 22.567 123.837 22.3036C124.241 22.0227 124.68 21.812 125.154 21.6715C125.645 21.5311 126.163 21.4608 126.708 21.4608C127.989 21.4608 129.113 21.7505 130.079 22.33C131.044 22.9094 131.799 23.7083 132.344 24.7267C132.906 25.7451 133.187 26.939 133.187 28.3086C133.187 29.3621 133.02 30.3366 132.686 31.232C132.353 32.1275 131.87 32.9089 131.238 33.5761C130.623 34.2257 129.868 34.7261 128.973 35.0773C128.095 35.4285 127.085 35.6041 125.944 35.6041ZM125.944 32.0748C126.576 32.0748 127.12 31.9256 127.577 31.6271C128.033 31.3111 128.384 30.8897 128.63 30.3629C128.894 29.8186 129.025 29.2128 129.025 28.5456C129.025 27.8784 128.894 27.2814 128.63 26.7547C128.384 26.2279 128.033 25.8153 127.577 25.5168C127.12 25.2008 126.576 25.0427 125.944 25.0427C125.312 25.0427 124.759 25.2008 124.284 25.5168C123.828 25.8153 123.477 26.2279 123.231 26.7547C122.985 27.2814 122.862 27.8784 122.862 28.5456C122.862 29.2128 122.985 29.8186 123.231 30.3629C123.477 30.8897 123.828 31.3111 124.284 31.6271C124.759 31.9256 125.312 32.0748 125.944 32.0748Z" fill="#FCFFE7"/>
<path d="M142.66 35.288C141.132 35.288 139.789 35.0071 138.63 34.4452C137.472 33.8658 136.567 33.0757 135.918 32.0748C135.286 31.0565 134.969 29.88 134.969 28.5456C134.969 27.0707 135.277 25.8065 135.891 24.753C136.506 23.6995 137.322 22.8918 138.341 22.33C139.377 21.7505 140.518 21.4608 141.765 21.4608C143.187 21.4608 144.372 21.7593 145.32 22.3563C146.286 22.9533 147.014 23.7698 147.506 24.8057C147.998 25.8241 148.244 26.9917 148.244 28.3086C148.244 28.5368 148.226 28.809 148.191 29.125C148.173 29.4235 148.147 29.6606 148.112 29.8362H139.262C139.368 30.2927 139.57 30.679 139.868 30.995C140.167 31.3111 140.544 31.5481 141.001 31.7061C141.457 31.8466 141.966 31.9168 142.528 31.9168H146.663V35.288H142.66ZM139.157 27.2814H144.293C144.258 27.0005 144.205 26.7283 144.135 26.465C144.065 26.2016 143.951 25.9733 143.793 25.7802C143.652 25.5695 143.485 25.3939 143.292 25.2534C143.099 25.0954 142.871 24.9725 142.607 24.8847C142.362 24.7969 142.081 24.753 141.765 24.753C141.361 24.753 141.001 24.8233 140.685 24.9637C140.369 25.1042 140.105 25.2973 139.895 25.5431C139.684 25.7714 139.517 26.0436 139.394 26.3596C139.289 26.6581 139.21 26.9654 139.157 27.2814Z" fill="#FCFFE7"/>
<path d="M155.574 35.288C154.327 35.288 153.352 34.9368 152.65 34.2345C151.948 33.5146 151.597 32.5489 151.597 31.3374V18.4847H155.705V31.1004C155.705 31.3111 155.776 31.4954 155.916 31.6534C156.074 31.7939 156.258 31.8641 156.469 31.8641H159.419V35.288H155.574ZM149.384 25.1217V21.7769H159.419V25.1217H149.384Z" fill="#FCFFE7"/>
<path d="M166.865 35.288C165.618 35.288 164.644 34.9368 163.941 34.2345C163.239 33.5146 162.888 32.5489 162.888 31.3374V18.4847H166.996V31.1004C166.996 31.3111 167.067 31.4954 167.207 31.6534C167.365 31.7939 167.55 31.8641 167.76 31.8641H170.71V35.288H166.865ZM160.675 25.1217V21.7769H170.71V25.1217H160.675Z" fill="#FCFFE7"/>
<path d="M173.099 35.288V25.7538C173.099 24.5248 173.45 23.5591 174.153 22.8567C174.855 22.1544 175.829 21.8032 177.076 21.8032H181V25.1217H178.077C177.831 25.1217 177.62 25.2095 177.445 25.3851C177.269 25.5431 177.181 25.7538 177.181 26.0172V35.288H173.099Z" fill="#FCFFE7"/>
</svg>
