<svg width="297" height="66" viewBox="0 0 297 66" fill="none" xmlns="http://www.w3.org/2000/svg">
<path d="M11.1353 9.26137L71.2905 8.48246C71.7142 8.47697 72.0154 8.06629 71.8952 7.65799L70.7249 3.68163C69.9958 1.20451 67.5502 -0.343684 65.0121 0.065159L11.0915 8.75076C10.7786 8.80116 10.8184 9.26547 11.1353 9.26137Z" fill="#FCFFE7"/>
<path fill-rule="evenodd" clip-rule="evenodd" d="M6.10666 14.6127H69.9614C72.7855 14.6127 75.0749 16.9134 75.0749 19.7515V31.4401C71.5892 32.1381 68.9387 35.6408 68.9387 39.8567C68.9387 44.0727 71.5892 47.5754 75.0749 48.2733V60.8612C75.0749 63.6993 72.7855 66 69.9614 66H6.10666C3.28255 66 0.993164 63.6993 0.993164 60.8612V48.7322C4.69699 48.2563 7.57679 44.6367 7.57679 40.2421C7.57679 35.8475 4.69699 32.228 0.993164 31.752V19.7515C0.993164 16.9134 3.28255 14.6127 6.10666 14.6127ZM33.6065 22.4734C33.0208 22.4604 32.4484 22.6499 31.9851 23.0103L20.2081 32.1703C19.29 32.8844 19.718 34.3595 20.8742 34.4656L36.2548 35.8781C36.9803 35.9447 37.6997 35.6972 38.2323 35.1975L49.0785 25.0217C49.9165 24.2355 49.3806 22.8237 48.2344 22.7983L33.6065 22.4734ZM52.7159 27.0416C52.4577 26.1107 51.3077 25.7887 50.6078 26.4514L39.9637 36.5285C39.2455 37.2084 38.9808 38.2429 39.2834 39.1867L44.6241 55.8418C44.9224 56.7718 46.1038 57.0401 46.7709 56.3292L56.6388 45.8143C57.2534 45.1594 57.4821 44.2289 57.2416 43.3617L52.7159 27.0416ZM36.8774 39.6931C36.5648 38.729 35.7173 38.0399 34.7139 37.9338L20.1759 36.3971C19.2555 36.2998 18.5404 37.1871 18.8264 38.0717L24.116 54.4348C24.4144 55.3578 25.2049 56.0331 26.1595 56.1805L41.0162 58.4742C41.9576 58.6196 42.7209 57.7165 42.4258 56.8065L36.8774 39.6931Z" fill="#FCFFE7"/>
<path d="M37.5638 24.4328C38.0182 24.9672 34.8917 27.6298 34.8917 27.6298L33.1707 28.1851C33.1707 28.1851 29.2821 27.7273 30.6238 26.4392C31.2436 25.8441 31.7268 25.5591 32.7351 25.3111C33.2904 25.1745 34.0067 25.3278 34.0067 25.3278C34.0067 25.3278 34.6829 24.6988 35.5528 24.4063C36.6638 24.0329 37.3981 24.238 37.5638 24.4328Z" fill="#FCFFE7"/>
<path d="M27.7432 29.0922C29.0557 28.3187 33.1707 28.1851 33.1707 28.1851L33.0874 29.0787C33.0874 29.0787 30.4575 32.0052 28.4764 32.1806C27.5611 32.2616 27.2129 32.1714 27.1954 31.6853C27.1857 31.4176 27.8465 30.7896 27.8465 30.7896C27.8465 30.7896 26.8891 30.8607 26.7136 30.5087C26.4895 30.0591 27.2647 29.3742 27.7432 29.0922Z" fill="#FCFFE7"/>
<path d="M38.8612 28.8442C37.3833 29.4318 34.8216 28.5629 34.8216 28.5629L34.8917 27.6298C34.8917 27.6298 39.0624 24.7565 40.577 25.0356C41.2767 25.1645 41.4555 25.3558 41.1169 25.9312C40.9304 26.2482 40.0141 26.8244 40.0141 26.8244C40.0141 26.8244 40.7363 26.9752 40.6051 27.4318C40.4375 28.015 39.4 28.63 38.8612 28.8442Z" fill="#FCFFE7"/>
<path d="M33.1707 28.1851C32.9199 29.9648 33.1702 31.0538 34.4645 32.377C34.5442 32.4585 34.7304 32.4863 34.968 32.4071C35.1301 32.3531 35.2841 32.2861 35.4344 32.2048C35.7034 32.0593 35.781 31.8763 35.6923 31.7707C34.6408 30.5175 34.7493 29.358 34.8917 27.6298L33.1707 28.1851Z" fill="#FCFFE7"/>
<path d="M33.1707 28.1851L34.8917 27.6298L34.8216 28.5629L33.0874 29.0787L33.1707 28.1851Z" fill="#FCFFE7"/>
<path d="M45.014 48.3689L44.6709 47.2448L45.423 46.489L44.4299 43.2347L43.7356 43.9324L43.3926 42.8083L45.0356 41.1572L46.3718 45.5356L47.0487 44.8554L47.3917 45.9794L45.014 48.3689Z" fill="#FCFFE7"/>
<path d="M47.6888 45.6809L48.0539 43.0131C47.8622 43.062 47.6892 43.0647 47.5348 43.0213C47.3827 42.9687 47.2473 42.8719 47.1287 42.7309C47.0139 42.5861 46.9222 42.4009 46.8534 42.1756L46.6375 41.4682L47.5342 40.567L47.7309 41.2116C47.7693 41.3374 47.8226 41.4378 47.8909 41.513C47.9615 41.579 48.0388 41.6177 48.1229 41.6291C48.2093 41.6313 48.2958 41.6094 48.3825 41.5633L48.6334 39.4624L49.6458 38.445L49.3054 40.9955C49.5077 40.9154 49.6943 40.8991 49.865 40.9466C50.038 40.9851 50.1873 41.0781 50.313 41.2257C50.4425 41.3694 50.5441 41.5618 50.6177 41.8028L50.836 42.5182L49.9335 43.4251L49.7272 42.7491C49.684 42.6076 49.6197 42.5044 49.5344 42.4395C49.4529 42.3707 49.3605 42.3404 49.2571 42.3484C49.1576 42.3525 49.058 42.3978 48.9584 42.4842L48.6954 44.6693L47.6888 45.6809Z" fill="#FCFFE7"/>
<path d="M52.1288 41.219C51.9629 41.3856 51.802 41.4857 51.6459 41.5193C51.4883 41.5477 51.3499 41.5155 51.2309 41.4228C51.1103 41.3249 51.0196 41.1763 50.9589 40.9772C50.9045 40.799 50.8845 40.5931 50.8989 40.3596C50.9171 40.1221 50.9654 39.8922 51.0437 39.6697L51.8987 37.2697C51.9535 37.1188 51.9849 36.9742 51.9931 36.8359C52.0036 36.6885 51.992 36.5597 51.9584 36.4497C51.92 36.3239 51.8668 36.2404 51.7988 36.1992C51.7331 36.1489 51.6563 36.1369 51.5687 36.1634C51.4833 36.1808 51.3904 36.2398 51.2901 36.3406L50.1504 37.4859L49.8074 36.3619L51.0397 35.1235C51.3058 34.8561 51.5612 34.7022 51.8059 34.6617C52.0528 34.6121 52.2702 34.6641 52.4582 34.8176C52.6484 34.962 52.7923 35.194 52.8898 35.5136C52.9858 35.8281 53.0231 36.1569 53.0019 36.5001C52.9829 36.8342 52.8961 37.2021 52.7416 37.6039L51.9562 39.6874C51.9501 39.7004 51.9444 39.7231 51.9393 39.7557C51.9363 39.7792 51.9381 39.8014 51.9445 39.8224C51.9541 39.8538 51.9671 39.8716 51.9834 39.8757C52.0021 39.8707 52.0249 39.8546 52.0519 39.8275L53.799 38.0717L54.1421 39.1958L52.1288 41.219Z" fill="#FCFFE7"/>
<path fill-rule="evenodd" clip-rule="evenodd" d="M32.0986 53.6481C35.5985 54.1111 37.6417 51.7236 36.6622 48.3153C35.6826 44.9071 32.0513 41.7688 28.5513 41.3058C25.0514 40.8427 23.0082 43.2303 23.9878 46.6385C24.9673 50.0467 28.5987 53.185 32.0986 53.6481ZM27.0059 48.954L27.3588 50.1818L30.9825 50.6613L30.6297 49.4335L29.5981 49.297L28.2236 44.5146L25.7196 44.1833L26.0725 45.4111L27.1305 45.5511L28.1521 49.1057L27.0059 48.954ZM32.9337 46.5501L31.7263 50.7597L33.3398 50.9731L34.405 47.1247C34.43 47.0344 34.4407 46.934 34.4372 46.8234C34.432 46.7071 34.4122 46.5888 34.3776 46.4686C34.3151 46.2511 34.1996 46.0458 34.031 45.8528C33.8624 45.6598 33.6655 45.4961 33.4403 45.3617C33.2151 45.2273 32.982 45.1441 32.741 45.1123L29.752 44.7168L30.1049 45.9446L32.7764 46.2981C32.8176 46.3035 32.8532 46.3192 32.8833 46.3452C32.9134 46.3712 32.9325 46.3986 32.9408 46.4272C32.9506 46.4615 32.9483 46.5025 32.9337 46.5501Z" fill="#FCFFE7"/>
<path d="M85.7534 56.3829V50.3486H98.6409C99.2156 50.3486 99.7328 50.2049 100.193 49.9176C100.652 49.6302 101.012 49.2567 101.27 48.7969C101.557 48.3371 101.701 47.8343 101.701 47.2883C101.701 46.7136 101.557 46.1964 101.27 45.7366C101.012 45.2769 100.652 44.9033 100.193 44.616C99.7328 44.3286 99.2156 44.185 98.6409 44.185H93.9859C92.2331 44.185 90.6383 43.8402 89.2015 43.1505C87.7648 42.4609 86.6154 41.4552 85.7534 40.1334C84.9201 38.7828 84.5034 37.1737 84.5034 35.3059C84.5034 33.4669 84.9057 31.8721 85.7103 30.5216C86.5148 29.1711 87.6068 28.1223 88.986 27.3752C90.3653 26.5993 91.8882 26.2114 93.5549 26.2114H106.873V32.2457H94.3738C93.8566 32.2457 93.3825 32.375 92.9514 32.6336C92.5204 32.8922 92.19 33.237 91.9601 33.6681C91.7302 34.0991 91.6153 34.5732 91.6153 35.0904C91.6153 35.6077 91.7302 36.0818 91.9601 36.5128C92.19 36.9151 92.5204 37.2455 92.9514 37.5041C93.3825 37.7628 93.8566 37.8921 94.3738 37.8921H99.2443C101.17 37.8921 102.836 38.2656 104.244 39.0127C105.681 39.7311 106.787 40.7512 107.563 42.073C108.368 43.366 108.77 44.889 108.77 46.6418C108.77 48.7107 108.353 50.4779 107.52 51.9434C106.715 53.3801 105.623 54.4864 104.244 55.2622C102.865 56.0093 101.342 56.3829 99.6754 56.3829H85.7534Z" fill="#FCFFE7"/>
<path d="M112.643 56.3829V43.6677C112.643 41.8287 113.088 40.1621 113.979 38.6679C114.87 37.1737 116.134 35.9812 117.772 35.0904C119.439 34.1997 121.407 33.7543 123.677 33.7543C125.976 33.7543 127.93 34.1997 129.539 35.0904C131.177 35.9812 132.427 37.1737 133.289 38.6679C134.151 40.1621 134.582 41.8287 134.582 43.6677V56.3829H127.901V43.8402C127.901 43.0643 127.714 42.3603 127.341 41.7282C126.967 41.0673 126.45 40.55 125.789 40.1765C125.157 39.7742 124.439 39.573 123.634 39.573C122.801 39.573 122.054 39.7742 121.393 40.1765C120.761 40.55 120.258 41.0673 119.884 41.7282C119.511 42.3603 119.324 43.0643 119.324 43.8402V56.3829H112.643Z" fill="#FCFFE7"/>
<path d="M148.461 56.9001C146.507 56.9001 144.783 56.3972 143.289 55.3915C141.794 54.3858 140.631 53.0353 139.797 51.3399C138.964 49.6158 138.547 47.6762 138.547 45.5211C138.547 43.2798 139.036 41.2828 140.013 39.5299C140.99 37.7484 142.369 36.3404 144.151 35.3059C145.961 34.2715 148.087 33.7543 150.53 33.7543C153.001 33.7543 155.099 34.2715 156.823 35.3059C158.575 36.3117 159.912 37.7053 160.831 39.4868C161.779 41.2397 162.254 43.208 162.254 45.3918V56.3829H155.702V52.8485H155.53C155.127 53.6243 154.61 54.3283 153.978 54.9605C153.346 55.5639 152.57 56.0381 151.65 56.3829C150.76 56.7277 149.696 56.9001 148.461 56.9001ZM150.444 51.1244C151.449 51.1244 152.326 50.8802 153.073 50.3917C153.849 49.8745 154.438 49.1704 154.84 48.2797C155.242 47.3889 155.443 46.3975 155.443 45.3056C155.443 44.2424 155.242 43.2798 154.84 42.4178C154.438 41.5557 153.849 40.8805 153.073 40.392C152.326 39.8748 151.449 39.6162 150.444 39.6162C149.409 39.6162 148.504 39.8748 147.728 40.392C146.952 40.8805 146.363 41.5557 145.961 42.4178C145.559 43.2798 145.358 44.2424 145.358 45.3056C145.358 46.3975 145.559 47.3889 145.961 48.2797C146.363 49.1704 146.952 49.8745 147.728 50.3917C148.504 50.8802 149.409 51.1244 150.444 51.1244Z" fill="#FCFFE7"/>
<path d="M178.875 33.7543C180.743 33.7543 182.395 34.056 183.832 34.6594C185.297 35.2341 186.533 36.0674 187.538 37.1593C188.573 38.2225 189.363 39.4868 189.909 40.9523C190.455 42.3891 190.728 43.9838 190.728 45.7366C190.728 47.9205 190.268 49.8601 189.349 51.5554C188.458 53.222 187.222 54.5295 185.642 55.4777C184.061 56.426 182.222 56.9001 180.125 56.9001C179.234 56.9001 178.386 56.7852 177.582 56.5553C176.806 56.3254 176.088 55.995 175.427 55.5639C174.794 55.1329 174.263 54.6013 173.832 53.9692H173.703V65.736H167.022V45.7366C167.022 43.2942 167.51 41.1822 168.487 39.4006C169.464 37.6191 170.843 36.2398 172.625 35.2628C174.407 34.2571 176.49 33.7543 178.875 33.7543ZM178.875 39.5299C177.84 39.5299 176.935 39.7886 176.159 40.3058C175.412 40.7943 174.838 41.4839 174.435 42.3747C174.033 43.2367 173.832 44.2137 173.832 45.3056C173.832 46.3975 174.033 47.3745 174.435 48.2366C174.838 49.0986 175.412 49.7882 176.159 50.3055C176.935 50.794 177.84 51.0382 178.875 51.0382C179.909 51.0382 180.8 50.794 181.547 50.3055C182.294 49.7882 182.869 49.0986 183.271 48.2366C183.702 47.3745 183.918 46.3975 183.918 45.3056C183.918 44.2137 183.702 43.2367 183.271 42.3747C182.869 41.4839 182.294 40.7943 181.547 40.3058C180.8 39.7886 179.909 39.5299 178.875 39.5299Z" fill="#FCFFE7"/>
<path d="M206.361 56.9001C203.976 56.9001 201.893 56.4116 200.111 55.4346C198.329 54.4576 196.95 53.064 195.973 51.2537C194.996 49.4434 194.508 47.3314 194.508 44.9177V24.9183H201.189V36.6852H201.318C201.749 36.0818 202.28 35.5646 202.913 35.1335C203.574 34.6738 204.292 34.329 205.068 34.0991C205.872 33.8692 206.72 33.7543 207.611 33.7543C209.708 33.7543 211.547 34.2284 213.128 35.1766C214.708 36.1249 215.944 37.4323 216.835 39.0989C217.754 40.7655 218.214 42.7195 218.214 44.9608C218.214 46.6849 217.941 48.2797 217.395 49.7451C216.849 51.2106 216.059 52.4893 215.024 53.5812C214.019 54.6444 212.783 55.4634 211.318 56.0381C209.881 56.6127 208.229 56.9001 206.361 56.9001ZM206.361 51.1244C207.395 51.1244 208.286 50.8802 209.033 50.3917C209.78 49.8745 210.355 49.1848 210.757 48.3228C211.188 47.432 211.404 46.4407 211.404 45.3487C211.404 44.2568 211.188 43.2798 210.757 42.4178C210.355 41.5557 209.78 40.8805 209.033 40.392C208.286 39.8748 207.395 39.6162 206.361 39.6162C205.326 39.6162 204.421 39.8748 203.645 40.392C202.898 40.8805 202.324 41.5557 201.921 42.4178C201.519 43.2798 201.318 44.2568 201.318 45.3487C201.318 46.4407 201.519 47.432 201.921 48.3228C202.324 49.1848 202.898 49.8745 203.645 50.3917C204.421 50.8802 205.326 51.1244 206.361 51.1244Z" fill="#FCFFE7"/>
<path d="M233.717 56.3829C231.218 56.3829 229.019 55.9231 227.123 55.0036C225.226 54.0554 223.747 52.7623 222.683 51.1244C221.649 49.4578 221.132 47.5326 221.132 45.3487C221.132 42.935 221.635 40.8661 222.64 39.142C223.646 37.4179 224.982 36.0961 226.649 35.1766C228.344 34.2284 230.212 33.7543 232.252 33.7543C234.58 33.7543 236.519 34.2428 238.071 35.2197C239.651 36.1967 240.844 37.5329 241.648 39.2282C242.453 40.8948 242.855 42.8057 242.855 44.9608C242.855 45.3344 242.826 45.7798 242.769 46.297C242.74 46.7855 242.697 47.1734 242.64 47.4607H228.157C228.33 48.2078 228.66 48.84 229.149 49.3572C229.637 49.8745 230.255 50.2624 231.002 50.521C231.749 50.7509 232.582 50.8658 233.502 50.8658H240.269V56.3829H233.717ZM227.985 43.2798H236.39C236.332 42.8201 236.246 42.3747 236.131 41.9437C236.016 41.5126 235.829 41.1391 235.571 40.823C235.341 40.4782 235.068 40.1908 234.752 39.961C234.436 39.7024 234.062 39.5012 233.631 39.3575C233.229 39.2139 232.769 39.142 232.252 39.142C231.591 39.142 231.002 39.257 230.485 39.4868C229.968 39.7167 229.537 40.0328 229.192 40.4351C228.847 40.8086 228.574 41.254 228.373 41.7713C228.2 42.2597 228.071 42.7626 227.985 43.2798Z" fill="#FCFFE7"/>
<path d="M254.851 56.3829C252.811 56.3829 251.216 55.8082 250.067 54.6588C248.917 53.4807 248.343 51.9003 248.343 49.9176V28.8837H255.066V49.5296C255.066 49.8745 255.181 50.1762 255.411 50.4348C255.67 50.6647 255.972 50.7796 256.316 50.7796H261.144V56.3829H254.851ZM244.722 39.7455V34.2715H261.144V39.7455H244.722Z" fill="#FCFFE7"/>
<path d="M273.329 56.3829C271.289 56.3829 269.694 55.8082 268.545 54.6588C267.396 53.4807 266.821 51.9003 266.821 49.9176V28.8837H273.545V49.5296C273.545 49.8745 273.66 50.1762 273.89 50.4348C274.148 50.6647 274.45 50.7796 274.795 50.7796H279.622V56.3829H273.329ZM263.2 39.7455V34.2715H279.622V39.7455H263.2Z" fill="#FCFFE7"/>
<path d="M283.532 56.3829V40.7799C283.532 38.7685 284.107 37.1881 285.256 36.0387C286.406 34.8893 288 34.3146 290.04 34.3146H296.463V39.7455H291.678C291.276 39.7455 290.931 39.8891 290.644 40.1765C290.357 40.4351 290.213 40.7799 290.213 41.2109V56.3829H283.532Z" fill="#FCFFE7"/>
</svg>
