<svg width="24" height="26" viewBox="0 0 24 26" fill="none" xmlns="http://www.w3.org/2000/svg">
<path d="M19.6175 7.85714C20.5146 7.85714 21.3749 7.49592 22.0093 6.85294C22.6436 6.20996 23 5.33788 23 4.42857C23 3.51926 22.6436 2.64719 22.0093 2.00421C21.3749 1.36122 20.5146 1 19.6175 1C18.7204 1 17.8601 1.36122 17.2257 2.00421C16.5914 2.64719 16.235 3.51926 16.235 4.42857C16.235 5.33788 16.5914 6.20996 17.2257 6.85294C17.8601 7.49592 18.7204 7.85714 19.6175 7.85714ZM4.3825 7.85714C5.27959 7.85714 6.13995 7.49592 6.77429 6.85294C7.40863 6.20996 7.765 5.33788 7.765 4.42857C7.765 3.51926 7.40863 2.64719 6.77429 2.00421C6.13995 1.36122 5.27959 1 4.3825 1C3.48541 1 2.62505 1.36122 1.99071 2.00421C1.35637 2.64719 1 3.51926 1 4.42857C1 5.33788 1.35637 6.20996 1.99071 6.85294C2.62505 7.49592 3.48541 7.85714 4.3825 7.85714ZM19.6175 25C20.0617 25 20.5015 24.9113 20.9119 24.739C21.3223 24.5667 21.6952 24.3142 22.0093 23.9958C22.3234 23.6774 22.5725 23.2995 22.7425 22.8835C22.9125 22.4675 23 22.0217 23 21.5714C23 21.1212 22.9125 20.6753 22.7425 20.2594C22.5725 19.8434 22.3234 19.4654 22.0093 19.1471C21.6952 18.8287 21.3223 18.5761 20.9119 18.4038C20.5015 18.2315 20.0617 18.1429 19.6175 18.1429C18.7204 18.1429 17.8601 18.5041 17.2257 19.1471C16.5914 19.79 16.235 20.6621 16.235 21.5714C16.235 22.4807 16.5914 23.3528 17.2257 23.9958C17.8601 24.6388 18.7204 25 19.6175 25ZM4.3825 25C4.8267 25 5.26654 24.9113 5.67693 24.739C6.08731 24.5667 6.46019 24.3142 6.77429 23.9958C7.08838 23.6774 7.33754 23.2995 7.50752 22.8835C7.67751 22.4675 7.765 22.0217 7.765 21.5714C7.765 21.1212 7.67751 20.6753 7.50752 20.2594C7.33754 19.8434 7.08838 19.4654 6.77429 19.1471C6.46019 18.8287 6.08731 18.5761 5.67693 18.4038C5.26654 18.2315 4.8267 18.1429 4.3825 18.1429C3.48541 18.1429 2.62505 18.5041 1.99071 19.1471C1.35637 19.79 1 20.6621 1 21.5714C1 22.4807 1.35637 23.3528 1.99071 23.9958C2.62505 24.6388 3.48541 25 4.3825 25Z" stroke="#FCFFE7" stroke-width="2" stroke-miterlimit="10" stroke-linecap="round" stroke-linejoin="round"/>
</svg>
