<svg width="26" height="26" viewBox="0 0 26 26" fill="none" xmlns="http://www.w3.org/2000/svg">
<path d="M13 1C13.4497 2.40921 13.5565 3.21487 13.5985 4.66776M13 1C17.3265 1 21.1182 3.28964 23.2296 6.7233M13 1C7.99134 1 3.69939 4.06858 1.90157 8.42831M13.5985 4.66776L20.7508 8.42831M13.5985 4.66776L7.81185 10.3079M20.7508 8.42831L19.3844 16.3926M20.7508 8.42831C22.1051 7.53759 22.6277 7.23778 23.2296 6.7233M19.3844 16.3926L11.3877 17.5542M19.3844 16.3926C21.3278 17.7033 22.0633 18.4842 22.7022 20.0631M11.3877 17.5542L7.81185 10.3079M11.3877 17.5542C10.4772 20.5512 9.72287 21.8563 8.28155 24.0368M7.81185 10.3079C5.59506 9.09969 4.32644 8.55664 1.90157 8.42831M23.2296 6.7233C24.3524 8.5494 25 10.6991 25 13C25 15.6403 24.1473 18.0815 22.7022 20.0631M22.7022 20.0631C20.52 23.0555 16.9871 25 13 25C11.3249 25 9.72987 24.6568 8.28155 24.0368M8.28155 24.0368C3.99987 22.2039 1 17.9523 1 13C1 11.3812 1.32052 9.83734 1.90157 8.42831" stroke="#FCFFE7" stroke-width="1.5"/>
</svg>
