<svg width="16" height="15" viewBox="0 0 16 15" fill="none" xmlns="http://www.w3.org/2000/svg">
<path opacity="0.4" d="M5.06344 0.990021H10.9295C13.4876 0.990021 15.0085 2.51086 15.0085 5.06194V10.928C15.0085 13.4791 13.4876 15 10.9365 15H5.06344C2.51236 15.007 0.991516 13.4861 0.991516 10.935V5.06194C0.991516 2.51086 2.51236 0.990021 5.06344 0.990021Z" fill="#2B3467"/>
<path d="M7.99997 12.6101C5.77828 12.6101 3.97009 10.8019 3.97009 8.58021C3.97009 7.78124 4.20137 7.0033 4.64991 6.3445C4.81111 6.10622 5.14051 6.03613 5.3788 6.19733C5.61708 6.35852 5.68717 6.68792 5.52597 6.92621C5.22881 7.37551 5.05874 7.89684 5.0338 8.43495C5.00885 8.97305 5.12995 9.50788 5.38427 9.98275C5.63859 10.4576 6.01664 10.8548 6.47837 11.1323C6.9401 11.4098 7.46829 11.5571 8.00697 11.5588C8.79638 11.557 9.55292 11.2425 10.1111 10.6844C10.6693 10.1262 10.9837 9.36961 10.9856 8.58021C10.9856 7.01031 9.7661 5.72075 8.22424 5.60861L8.51158 5.81887C8.74286 5.98707 8.79893 6.31647 8.62372 6.55476C8.58283 6.61052 8.53133 6.65766 8.47218 6.69349C8.41304 6.72931 8.3474 6.75311 8.27904 6.76353C8.21068 6.77395 8.14094 6.77077 8.07381 6.75419C8.00668 6.73761 7.94348 6.70794 7.88783 6.66689L6.52819 5.6787C6.47942 5.64395 6.43678 5.60131 6.40203 5.55255C6.39503 5.54554 6.38802 5.53853 6.38101 5.52451C6.35281 5.47387 6.33159 5.41965 6.31793 5.36332C6.30511 5.29634 6.30275 5.22778 6.31092 5.16007L6.33195 5.07597C6.34597 5.02691 6.374 4.98486 6.40203 4.9358C6.41605 4.92879 6.43007 4.91478 6.44408 4.90076L7.60749 3.56915C7.79672 3.35189 8.13313 3.33086 8.35039 3.52009C8.56765 3.70932 8.58868 4.04572 8.39945 4.26299L8.14014 4.56435C9.18509 4.60066 10.1752 5.04099 10.902 5.79264C11.6288 6.5443 12.0357 7.54864 12.0368 8.59422C12.0298 10.8019 10.2217 12.6101 7.99997 12.6101Z" fill="#2B3467"/>
</svg>
